HIERARCHY
ROOT Hips
{
	OFFSET 0.000000 0.000000 0.000000 
	CHANNELS 6 Xposition Yposition Zposition Zrotation Yrotation Xrotation
	JOINT LeftUpLeg
	{
		OFFSET 1.363060 -1.794630 0.839290 
		CHANNELS 3 Zrotation Yrotation Xrotation
		JOINT LeftLeg
		{
			OFFSET 2.448110 -6.726130 0.000000 
			CHANNELS 3 Zrotation Yrotation Xrotation
			JOINT LeftFoot
			{
				OFFSET 2.562200 -7.039590 0.000000 
				CHANNELS 3 Zrotation Yrotation Xrotation
				JOINT LeftToeBase
				{
					OFFSET 0.157640 -0.433110 2.322550 
					CHANNELS 3 Zrotation Yrotation Xrotation
					End Site
					{
						OFFSET 0.000000 0.000000 0.000000 
					}
				}
			}
		}
	}
	JOINT RightUpLeg
	{
		OFFSET -1.305520 -1.794630 0.839290 
		CHANNELS 3 Zrotation Yrotation Xrotation
		JOINT RightLeg
		{
			OFFSET -2.542530 -6.985550 0.000000 
			CHANNELS 3 Zrotation Yrotation Xrotation
			JOINT RightFoot
			{
				OFFSET -2.568260 -7.056230 0.000000 
				CHANNELS 3 Zrotation Yrotation Xrotation
				JOINT RightToeBase
				{
					OFFSET -0.164730 -0.452590 2.363150 
					CHANNELS 3 Zrotation Yrotation Xrotation
					End Site
					{
						OFFSET 0.000000 0.000000 0.000000 
					}
				}
			}
		}
	}
	JOINT Spine
	{
		OFFSET 0.028270 2.035590 -0.193380 
		CHANNELS 3 Zrotation Yrotation Xrotation
		JOINT Spine1
		{
			OFFSET 0.056720 2.048850 -0.042750 
			CHANNELS 3 Zrotation Yrotation Xrotation
			JOINT Neck1
			{
				OFFSET -0.054170 1.746240 0.172020 
				CHANNELS 3 Zrotation Yrotation Xrotation
				JOINT Head
				{
					OFFSET 0.104070 1.761360 -0.123970 
					CHANNELS 3 Zrotation Yrotation Xrotation
					End Site
					{
						OFFSET 0.000000 0.000000 0.000000 
					}
				}
			}
			JOINT LeftArm
			{
				OFFSET 3.362410 1.200890 -0.311210 
				CHANNELS 3 Zrotation Yrotation Xrotation
				JOINT LeftForeArm
				{
					OFFSET 4.983000 -0.000000 -0.000000 
					CHANNELS 3 Zrotation Yrotation Xrotation
					JOINT LeftHand
					{
						OFFSET 3.483560 -0.000000 -0.000000 
						CHANNELS 3 Zrotation Yrotation Xrotation
						JOINT LeftHandIndex1
						{
							OFFSET 0.715260 -0.000000 -0.000000 
							CHANNELS 3 Zrotation Yrotation Xrotation
							End Site
							{
								OFFSET 0.000000 0.000000 0.000000 
							}
						}
					}
				}
			}
			JOINT RightArm
			{
				OFFSET -3.136600 1.374050 -0.404650 
				CHANNELS 3 Zrotation Yrotation Xrotation
				JOINT RightForeArm
				{
					OFFSET -5.241900 -0.000000 -0.000000 
					CHANNELS 3 Zrotation Yrotation Xrotation
					JOINT RightHand
					{
						OFFSET -3.444170 -0.000000 -0.000000 
						CHANNELS 3 Zrotation Yrotation Xrotation
						JOINT RightHandIndex1
						{
							OFFSET -0.622530 -0.000000 -0.000000 
							CHANNELS 3 Zrotation Yrotation Xrotation
							End Site
							{
								OFFSET 0.000000 0.000000 0.000000 
							}
						}
					}
				}
			}
		}
	}
}
MOTION
Frames: 7
Frame Time: 0.041667
41.529457 17.775377 5.953246 -148.361589 -80.906594 160.191412 -9.362135 -3.576799 -12.837009 0.075068 6.331437 16.039404 -1.381339 8.694623 -1.465341 0.269700 -3.340700 -9.228700 25.995251 7.990190 -11.289348 -0.413619 -6.519147 16.875640 1.193525 -8.849200 -4.983945 -1.402100 -7.490300 21.176400 1.610015 -2.454716 -4.564450 5.514634 -1.416572 1.732389 6.284843 -4.505587 6.250082 3.211100 -2.129400 6.837300 -98.240536 -2.661878 14.946753 11.904576 -31.396943 -3.576881 2.108699 2.754815 31.760276 -7.125000 0.000000 0.000000 88.226237 3.024486 23.546209 -11.565237 24.204458 -2.508579 -0.646759 0.374501 10.924882 7.125000 0.000000 0.000000 
41.516479 17.770086 5.940367 -147.600380 -80.901032 159.422541 -9.195970 -3.427543 -13.390948 0.178610 6.667755 17.032574 -1.271718 8.135007 -2.480138 0.033400 -1.179400 -3.242500 26.177588 7.974888 -11.258383 -0.418924 -6.528884 16.908633 1.168140 -8.710310 -4.750996 -0.829700 -5.811100 16.237400 1.660341 -2.388826 -4.613025 5.677030 -1.383540 1.465382 6.113814 -4.446418 6.247326 3.132300 -2.109800 6.882000 -98.364568 -2.432920 14.936726 11.930567 -31.439171 -3.582874 2.101885 2.758183 31.799411 -7.125000 0.000000 0.000000 88.062028 2.852384 23.391202 -11.591618 24.206737 -2.474648 -0.663262 0.347725 10.867057 7.125000 0.000000 0.000000 
41.504698 17.764894 5.928786 -147.155800 -80.796525 159.023381 -9.046304 -3.233255 -14.008199 0.299079 7.036118 18.103580 -1.183210 7.711466 -3.278117 0.000100 -0.062400 -0.171500 26.360719 8.029113 -11.256467 -0.425446 -6.557089 16.986349 1.129475 -8.512994 -4.931790 -0.745700 -5.515900 15.386100 1.600872 -2.215091 -4.434918 5.387070 -1.294774 2.046465 6.072571 -4.582356 6.114893 3.040900 -2.147100 6.969700 -98.144447 -3.039495 15.183171 11.806376 -31.292732 -3.545790 2.110653 2.760549 31.845325 -7.125000 0.000000 0.000000 88.324735 3.426694 22.895300 -11.495393 24.096330 -2.482842 -0.646601 0.373819 10.833202 7.125000 0.000000 0.000000 
41.494315 17.759703 5.919402 -146.695353 -80.722790 158.529877 -8.921609 -3.123429 -14.621025 0.440607 7.426046 19.244608 -1.150411 7.550779 -3.467578 0.000900 -0.196200 -0.539100 26.509279 8.023899 -11.240601 -0.434520 -6.583010 17.068035 1.107555 -8.396221 -4.978808 -0.749000 -5.528100 15.421300 1.659516 -2.360202 -4.490485 5.427438 -1.367970 1.829827 6.123102 -4.303157 5.785127 3.133700 -2.031400 6.671700 -98.289678 -2.513147 14.651618 11.846739 -31.328285 -3.562503 2.115330 2.754543 31.922507 -7.125000 0.000000 0.000000 88.098557 2.995391 23.277486 -11.541547 24.148878 -2.443561 -0.669734 0.339482 10.641229 7.125000 0.000000 0.000000 
41.482635 17.754611 5.909818 -145.819883 -80.676483 157.643762 -8.744672 -3.013254 -15.288919 0.604022 7.847040 20.484529 -1.107214 7.346574 -3.680780 0.003100 -0.359000 -0.986300 26.722525 8.023787 -11.212325 -0.441813 -6.608028 17.139462 1.095325 -8.334971 -5.061369 -0.737700 -5.486900 15.302800 1.631826 -2.298898 -4.439963 5.171567 -1.336867 1.929233 6.091162 -4.319380 5.662444 3.087200 -2.029100 6.660200 -98.106209 -2.566799 14.699767 11.812825 -31.250510 -3.543878 2.106557 2.733396 31.885486 -7.125000 0.000000 0.000000 88.244432 3.085799 22.949018 -11.474902 24.053420 -2.420663 -0.670570 0.337218 10.622922 7.125000 0.000000 0.000000 
41.470455 17.749919 5.898636 -145.006454 -80.721535 156.776316 -8.617094 -2.962402 -15.976734 0.789208 8.287665 21.802617 -1.064834 7.145404 -3.821661 0.007600 -0.564500 -1.551200 26.871319 7.965567 -11.175786 -0.446851 -6.618932 17.180521 1.090133 -8.307910 -5.163437 -0.756200 -5.553900 15.495300 1.710435 -2.303947 -4.543130 5.418645 -1.344524 1.439528 5.987934 -4.238750 5.619055 3.067500 -2.007400 6.633200 -98.313359 -2.063027 14.516193 11.854804 -31.309523 -3.555242 2.102210 2.729793 31.956783 -7.125000 0.000000 0.000000 87.929959 2.654540 22.889611 -11.477615 24.052686 -2.447764 -0.658239 0.351555 10.481361 7.125000 0.000000 0.000000 
41.456378 17.746425 5.886856 -144.094623 -80.833459 155.791579 -8.531989 -2.891987 -16.713338 1.000008 8.756480 23.217544 -1.011663 6.894710 -3.835869 0.021000 -0.934900 -2.569600 27.002900 7.818614 -11.118686 -0.451284 -6.627636 17.214025 1.091313 -8.314392 -5.250561 -0.741800 -5.501900 15.345800 1.800472 -2.423793 -4.614476 5.676673 -1.407499 1.131860 5.990028 -4.048702 5.345719 3.118800 -1.933000 6.418000 -98.579387 -1.518639 14.103610 11.858114 -31.338367 -3.562871 2.116631 2.726474 32.128642 -7.125000 0.000000 0.000000 87.597739 2.272755 22.859081 -11.390436 23.918870 -2.416440 -0.654036 0.358999 10.357508 7.125000 0.000000 0.000000 
